<svg id="Capa_1" data-name="Capa 1" fill="#6d6d6d" xmlns="http://www.w3.org/2000/svg" viewBox="0 0 208.63 254.94"><path d="M144.43,0c14,14.11,27.53,28.69,42.12,42.14,7.65,7,10.49,14.37,10.08,24.64-.77,19.71-.23,39.47-.22,59.22,0,1.46.14,2.92.21,4.2a5.16,5.16,0,0,0,1.21.59c10.7,1.23,10.75,1.23,10.77,12.06,0,18.91,0,37.82,0,56.74,0,8.29-.58,8.91-9,9.23-.81,0-1.62.16-3.18.33v11.28c0,9.29-.09,18.58,0,27.87.06,4.62-2,6.65-6.59,6.64q-91.57,0-183.16,0c-5.17,0-6.66-1.77-6.66-7.55Q0,169.21,0,91.07C0,63.36-.06,35.66.15,8,.17,5.29,2,2.65,3,0Zm-134,10.12V244.7H186.14V208.8h-6.57l-130.93,0c-7.51,0-8.72-1.24-8.72-8.63q0-30.37,0-60.74c0-7.35,1.18-8.52,8.75-8.52H186.07V59.56c-13.43,0-26.52,0-39.6,0-8.75,0-9.57-.78-9.59-9.73,0-11.45,0-22.9,0-34.35,0-1.74-.15-3.49-.24-5.36ZM198.3,141.24h-148v57.17h148ZM147.24,49.1h29.27L147.24,19.24Z"/><path d="M109.22,169a15.65,15.65,0,0,1-1.07,5.85,13.25,13.25,0,0,1-3,4.59,13.78,13.78,0,0,1-4.69,3,16.45,16.45,0,0,1-6.08,1.08H83.2v-29H94.36a16.45,16.45,0,0,1,6.08,1.08,13.65,13.65,0,0,1,4.69,3,13.44,13.44,0,0,1,3,4.59A15.5,15.5,0,0,1,109.22,169Zm-6.16,0a13,13,0,0,0-.6-4.1,8.62,8.62,0,0,0-1.72-3.08A7.52,7.52,0,0,0,98,159.83a9.35,9.35,0,0,0-3.65-.68H89.24v19.62h5.12A9.35,9.35,0,0,0,98,178.1a7.41,7.41,0,0,0,2.73-1.94,8.75,8.75,0,0,0,1.72-3.09A13.13,13.13,0,0,0,103.06,169Z"/><path d="M141.68,169a16,16,0,0,1-1.07,5.9,13.64,13.64,0,0,1-7.71,7.81,16.92,16.92,0,0,1-12.16,0,14,14,0,0,1-4.7-3.11,13.68,13.68,0,0,1-3-4.7,16.77,16.77,0,0,1,0-11.79,13.64,13.64,0,0,1,3-4.69,14,14,0,0,1,4.7-3.11,16.92,16.92,0,0,1,12.16,0,13.76,13.76,0,0,1,4.69,3.12,13.9,13.9,0,0,1,3,4.7A15.91,15.91,0,0,1,141.68,169Zm-6.14,0a13,13,0,0,0-.6-4.09,8.72,8.72,0,0,0-1.73-3.08,7.44,7.44,0,0,0-2.74-1.94,10.3,10.3,0,0,0-7.31,0,7.4,7.4,0,0,0-2.75,1.94,8.72,8.72,0,0,0-1.73,3.08,14.31,14.31,0,0,0,0,8.2,8.59,8.59,0,0,0,1.73,3.07,7.49,7.49,0,0,0,2.75,1.93,10.3,10.3,0,0,0,7.31,0,7.54,7.54,0,0,0,2.74-1.93,8.59,8.59,0,0,0,1.73-3.07A13.06,13.06,0,0,0,135.54,169Z"/><path d="M165.84,176.33a1.12,1.12,0,0,1,.84.36l2.38,2.54a11.37,11.37,0,0,1-4.37,3.4,15.26,15.26,0,0,1-6.21,1.16,14.75,14.75,0,0,1-5.86-1.11,12.59,12.59,0,0,1-4.42-3.09,13.76,13.76,0,0,1-2.8-4.7,18.37,18.37,0,0,1-.51-10,14.29,14.29,0,0,1,1.37-3.59,13.84,13.84,0,0,1,2.17-3A12.86,12.86,0,0,1,151.3,156a13.82,13.82,0,0,1,3.49-1.42,15.84,15.84,0,0,1,4-.49,15.59,15.59,0,0,1,3,.28,15.37,15.37,0,0,1,2.67.78,12.47,12.47,0,0,1,2.29,1.21A12.6,12.6,0,0,1,168.7,158l-2,2.76a2,2,0,0,1-.46.46,1.32,1.32,0,0,1-.76.2,1.66,1.66,0,0,1-1-.34c-.33-.23-.73-.48-1.2-.76a9.14,9.14,0,0,0-1.78-.76,9,9,0,0,0-2.71-.34,8.26,8.26,0,0,0-3.34.66,7.27,7.27,0,0,0-2.61,1.91,8.74,8.74,0,0,0-1.69,3.07,13.17,13.17,0,0,0-.6,4.14,12.25,12.25,0,0,0,.65,4.17,9.15,9.15,0,0,0,1.78,3.09,7.39,7.39,0,0,0,2.64,1.91,8.1,8.1,0,0,0,3.23.65,15,15,0,0,0,1.85-.1,8.07,8.07,0,0,0,1.54-.34,7.1,7.1,0,0,0,1.34-.62,8,8,0,0,0,1.27-1,2.59,2.59,0,0,1,.46-.3A1.14,1.14,0,0,1,165.84,176.33Z"/></svg>