<svg id="Layer_1" data-name="Layer 1" xmlns="http://www.w3.org/2000/svg" width="98.1px" height="98.1px" viewBox="0 0 138.44 138.44"><defs><style>.cls-1{fill:#f5f7fb;}.cls-2{fill:#37466a;}</style></defs><title>M</title><circle class="cls-1" cx="69.22" cy="69.22" r="69.22"/><circle class="cls-2" cx="71.99" cy="80.61" r="2.53"/><path class="cls-2" d="M80.47,96.54H49a5.07,5.07,0,0,1-5.06-5.06V70.74A5.07,5.07,0,0,1,49,65.68H85.4a5.34,5.34,0,0,1,1.4.15A2.53,2.53,0,0,0,88.2,61a10,10,0,0,0-2.8-.35h-3V51.69a15.18,15.18,0,0,0-30.36,0v8.93H49A10.13,10.13,0,0,0,38.85,70.74V91.48A10.13,10.13,0,0,0,49,101.6h31.5a2.53,2.53,0,1,0,0-5.06ZM57.06,51.69a10.13,10.13,0,0,1,20.24,0v8.93H57.06Z"/><circle class="cls-2" cx="62.51" cy="80.61" r="2.53"/><path class="cls-2" d="M99.59,78.73a9,9,0,0,0-18,.11,2.53,2.53,0,0,0,5.06,0,3.93,3.93,0,1,1,7.85,0v.07a3.92,3.92,0,0,1-2.39,3.54,6.74,6.74,0,0,0-4.07,6.21v2.19a2.53,2.53,0,0,0,5.06,0V88.66a1.66,1.66,0,0,1,1-1.55,9,9,0,0,0,5.46-8.27Z"/><circle class="cls-2" cx="90.59" cy="99.07" r="2.53"/><circle class="cls-2" cx="53.02" cy="80.61" r="2.53"/></svg>