<svg id="Layer_1" data-name="Layer 1" xmlns="http://www.w3.org/2000/svg" width="98.1px" height="98.1px" viewBox="0 0 138.44 138.44"><defs><style>.cls-1{fill:#f5f7fb;}.cls-2{fill:#37466a;}</style></defs><title>M</title><circle class="cls-1" cx="69.22" cy="69.22" r="69.22"/><circle class="cls-2" cx="81.51" cy="80.58" r="2.52"/><path class="cls-2" d="M68.89,96.48H49a5.06,5.06,0,0,1-5.05-5V70.73a5,5,0,0,1,5.05-5H85.29a5.05,5.05,0,0,1,5,5v5a2.53,2.53,0,1,0,5,0v-5a10.11,10.11,0,0,0-10.1-10.09h-3v-8.9a15.15,15.15,0,0,0-30.29,0v8.9H49a10.11,10.11,0,0,0-10.1,10.09v20.7A10.11,10.11,0,0,0,49,101.53H68.89a2.53,2.53,0,0,0,0-5ZM57,51.74a10.1,10.1,0,0,1,20.19,0v8.9H57v-8.9Z"/><path class="cls-2" d="M102.41,78a2.53,2.53,0,0,0-3.52.58L86.45,96a1.44,1.44,0,0,1-1,.5,1.47,1.47,0,0,1-1.08-.39l-8-7.85a2.52,2.52,0,0,0-3.52,3.62l8,7.86,0,0a6.51,6.51,0,0,0,4.48,1.79l.43,0a6.52,6.52,0,0,0,4.63-2.41A1,1,0,0,0,90.5,99L103,81.54A2.53,2.53,0,0,0,102.41,78Z"/><circle class="cls-2" cx="71.91" cy="80.58" r="2.52"/><circle class="cls-2" cx="52.98" cy="80.58" r="2.52"/><circle class="cls-2" cx="62.45" cy="80.58" r="2.52"/></svg>