<svg id="Capa_1" data-name="Capa 1" fill="#6d6d6d" xmlns="http://www.w3.org/2000/svg" viewBox="0 0 208.63 254.94"><path d="M144.43,0c14,14.11,27.53,28.69,42.12,42.14,7.65,7,10.49,14.37,10.08,24.64-.77,19.71-.23,39.47-.22,59.22,0,1.46.14,2.92.21,4.2a5.16,5.16,0,0,0,1.21.59c10.7,1.23,10.75,1.23,10.77,12.06,0,18.91,0,37.82,0,56.74,0,8.29-.58,8.91-9,9.23-.81,0-1.62.16-3.18.33v11.28c0,9.29-.09,18.58,0,27.87.06,4.62-2,6.65-6.59,6.64q-91.57,0-183.16,0c-5.17,0-6.66-1.77-6.66-7.55Q0,169.21,0,91.07C0,63.36-.06,35.66.15,8,.17,5.29,2,2.65,3,0Zm-134,10.12V244.7H186.14V208.8h-6.57l-130.93,0c-7.51,0-8.72-1.24-8.72-8.63q0-30.37,0-60.74c0-7.35,1.18-8.52,8.75-8.52H186.07V59.56c-13.43,0-26.52,0-39.6,0-8.75,0-9.57-.78-9.59-9.73,0-11.45,0-22.9,0-34.35,0-1.74-.15-3.49-.24-5.36ZM198.3,141.24h-148v57.17h148ZM147.24,49.1h29.27L147.24,19.24Z"/><path d="M96,155.32a17.06,17.06,0,0,1,5.15.7,9.84,9.84,0,0,1,3.57,1.95,7.83,7.83,0,0,1,2.07,3,10.18,10.18,0,0,1,.67,3.74,10.52,10.52,0,0,1-.7,3.92,8,8,0,0,1-2.12,3.06,9.75,9.75,0,0,1-3.58,2,16.06,16.06,0,0,1-5.06.71H92.2v10h-6v-29Zm0,14.44a5.49,5.49,0,0,0,4.13-1.36,5.13,5.13,0,0,0,1.31-3.72,5.66,5.66,0,0,0-.33-2,3.92,3.92,0,0,0-1-1.52,4.58,4.58,0,0,0-1.69-1,7.89,7.89,0,0,0-2.42-.34H92.2v9.88Z"/><path d="M137.3,169.82a15.65,15.65,0,0,1-1.07,5.85,13.25,13.25,0,0,1-3,4.59,13.78,13.78,0,0,1-4.69,3,16.45,16.45,0,0,1-6.08,1.08H111.28v-29h11.16a16.45,16.45,0,0,1,6.08,1.08,13.8,13.8,0,0,1,4.69,3,13.44,13.44,0,0,1,3,4.59A15.57,15.57,0,0,1,137.3,169.82Zm-6.16,0a13.09,13.09,0,0,0-.6-4.1,8.62,8.62,0,0,0-1.72-3.08,7.64,7.64,0,0,0-2.73-1.94,9.35,9.35,0,0,0-3.65-.68h-5.12v19.62h5.12a9.35,9.35,0,0,0,3.65-.67,7.29,7.29,0,0,0,2.73-1.94,8.58,8.58,0,0,0,1.72-3.09A13.08,13.08,0,0,0,131.14,169.82Z"/><path d="M147.76,160v8H158.2v4.72H147.76v11.58h-6v-29H160.2V160Z"/></svg>