<svg id="Layer_1" data-name="Layer 1" xmlns="http://www.w3.org/2000/svg" xmlns:xlink="http://www.w3.org/1999/xlink" width="98.1px" height="98.1px" viewBox="0 0 133.18 133.18"><defs><style>.cls-1{fill:url(#linear-gradient);}.cls-2{opacity:0.25;fill:url(#linear-gradient-2);}.cls-3{fill:#fff;}</style><linearGradient id="linear-gradient" x1="16.59" y1="66.59" x2="116.59" y2="66.59" gradientUnits="userSpaceOnUse"><stop offset="0" stop-color="#2bbeed"/><stop offset="1" stop-color="#22e5e7"/></linearGradient><linearGradient id="linear-gradient-2" x1="0" y1="66.59" x2="133.18" y2="66.59" xlink:href="#linear-gradient"/></defs><title>M</title><circle class="cls-1" cx="66.59" cy="66.59" r="50"/><circle class="cls-2" cx="66.59" cy="66.59" r="66.59"/><path class="cls-3" d="M44.43,69.41a1.75,1.75,0,0,1,0-2.55L47,64.31a1.77,1.77,0,0,1,2.56,0l.18.18,10,10.76a.88.88,0,0,0,1.27,0L85.46,49.9h.18a1.76,1.76,0,0,1,2.55,0l2.56,2.55a1.77,1.77,0,0,1,0,2.56h0L61.57,85.28a1.78,1.78,0,0,1-2.55,0L44.79,70Z"/></svg>