<?xml version="1.0" encoding="utf-8"?>
<!-- Generator: Adobe Illustrator 23.0.3, SVG Export Plug-In . SVG Version: 6.00 Build 0)  -->
<svg version="1.1" id="Layer_1" xmlns="http://www.w3.org/2000/svg" xmlns:xlink="http://www.w3.org/1999/xlink" x="0px" y="0px"
	 viewBox="0 0 457.7 550" width="15px" height="15px" style="enable-background:new 0 0 457.7 550;" xml:space="preserve">
<title>Profile</title>
<path d="M215.7,550c-8.1-0.9-16.2-1.8-24.3-2.8c-30-3.8-59-13.1-85.6-27.2C63,497.4,29,465.2,3.1,424.4c-3.8-6-4.2-11.3-1-17.8
	c23.5-47.1,60.6-77.1,111.6-90.1c4-1,8.2-1.6,12.2-2.4c8-1.7,15,0.6,21.6,5.2c26.4,18.6,55.9,26.9,88,25.5
	c24.4-1.1,48-7.1,67.7-21.5c14.8-10.8,28.9-10.3,44.7-5.9c44.7,12.4,78.5,39.1,102.1,78.8c10.1,16.9,10.5,17.2-0.4,33.5
	c-26.6,40.1-61.1,71.5-104.4,92.9c-31.6,15.7-66,24.8-101.1,26.7c-1.1,0.1-2.3,0.4-3.4,0.7H215.7z"/>
<path d="M238.6,38.6c13.1,0.9,26,3.9,38.1,8.9c46.2,18.9,74.3,53.3,82.9,102.7c9.5,54.7-18,109.7-67.1,137.3
	c-47.6,26.7-110.5,20.1-151-16.4c-34-30.6-50.1-69-44.7-114.4c6.1-51.9,34.6-88.5,82.8-108.7c8.6-3.6,17.8-5.4,26.8-7.2
	C217.1,38.5,227.9,37.8,238.6,38.6z"/>
</svg>
