<svg id="Layer_1" data-name="Layer 1" xmlns="http://www.w3.org/2000/svg" width="98.1px" height="98.1px" viewBox="0 0 98.3 98.3"><defs><style>.cls-1{fill:#f7f9fc;}.cls-2{fill:#37466a;}</style></defs><title>email</title><circle class="cls-1" cx="49.15" cy="49.15" r="49.15"/><path class="cls-2" d="M19,66V32.4c.07-.2.16-.39.22-.59a5.47,5.47,0,0,1,1.6-2.49A5.79,5.79,0,0,1,24.9,28H73.36c.31,0,.62,0,.94,0a5.06,5.06,0,0,1,4.87,5.15c.1,10.7,0,21.39,0,32.09a3.43,3.43,0,0,1,0,.64,5.34,5.34,0,0,1-5.42,4.44L54,70.39l-29.76,0A5,5,0,0,1,19.42,67C19.29,66.68,19.12,66.35,19,66ZM25.1,31.66c.29.25.48.39.64.55Q30.87,37.32,36,42.47c3.8,3.81,7.59,7.64,11.41,11.45,1.18,1.18,2.17,1.16,3.36,0,.88-.86,1.73-1.75,2.61-2.62Q61.67,43,70,34.69l2.6-2.64a4.49,4.49,0,0,0,.33-.39ZM72.91,66.74,58,52c-1.68,1.62-3.3,3.21-5,4.76a6,6,0,0,1-1.55,1c-2.39,1.12-4.89.49-6.92-1.61-1.38-1.44-2.84-2.8-4.3-4.24l-15,14.81Zm2.68-32.38-15,14.85,15,14.86Zm-53,0V64l15-14.82Z"/></svg>