<svg id="Layer_1" data-name="Layer 1" xmlns="http://www.w3.org/2000/svg" width="15px" height="15px" viewBox="0 0 512.02 512.01"><title>Settings</title><path d="M0,289V223c2.59-7.26,7.92-10.87,15.3-12.58,16.86-3.91,33.6-8.3,50.43-12.32,3-.73,4.79-2,5.9-5.07,2.6-7.19,5.46-14.3,8.63-21.25a6.83,6.83,0,0,0-.45-7.3c-8.57-14.08-17-28.25-25.44-42.4-5.74-9.63-5-15.76,2.89-23.66Q76,79.66,94.73,61c8.24-8.21,14-8.9,24-2.89,13.58,8.11,27.19,16.17,40.67,24.43,2.6,1.6,4.63,1.58,7.35.35Q179.68,77,192.9,71.74c2.9-1.15,4.47-2.62,5.22-5.8,4.1-17.32,8.44-34.58,12.74-51.86C213.4,3.88,218.38,0,229,0q27,0,54,0c10.6,0,15.61,3.87,18.15,14.07,4.31,17.27,8.61,34.55,12.77,51.86.68,2.84,1.85,4.5,4.75,5.61,8.37,3.2,16.53,7,24.92,10.17a8.87,8.87,0,0,0,6.72-.35c13.42-7.72,26.64-15.79,39.95-23.7,9.26-5.5,15.17-4.77,22.78,2.81q19.13,19,38.18,38.18c7.79,7.81,8.51,13.7,2.84,23.2-7.77,13-15.51,26-23.43,38.94-1.65,2.7-1.9,4.84-.55,7.8q5.49,12,10.21,24.37a7.39,7.39,0,0,0,5.87,5.14c17.48,4.16,34.91,8.51,52.34,12.87,9.34,2.34,13.44,7.53,13.47,17.13q.09,27.75,0,55.49c0,9.93-4.05,15.06-13.68,17.46-17.44,4.35-34.87,8.7-52.35,12.87a7,7,0,0,0-5.54,4.84q-4.64,12.11-10,23.93c-1.22,2.7-1.27,4.69.33,7.3,7.93,12.91,15.65,25.95,23.4,39,5.5,9.23,4.8,15.25-2.74,22.83q-19,19.14-38.16,38.19c-7.69,7.66-13.94,8.42-23.28,2.85-12.87-7.67-25.66-15.47-38.63-23a8.16,8.16,0,0,0-6.21-.43q-13.47,5.26-26.61,11.31a9,9,0,0,0-4.41,5.08c-4.4,16.9-8.64,33.85-12.56,50.87-1.71,7.39-5.32,12.72-12.58,15.31H223c-7.26-2.59-10.87-7.92-12.58-15.31-3.86-16.69-8.25-33.27-12.15-49.95-.82-3.48-2.27-5.33-5.66-6.6-8.09-3-16.06-6.42-23.92-10-3-1.37-5.27-1.45-8.2.36-12.31,7.63-24.78,15-37.23,22.42-9.1,5.42-15.39,4.66-22.86-2.78Q81.26,431.1,62.21,412c-7.7-7.73-8.46-13.86-2.87-23.23,7.42-12.44,14.82-24.9,22.43-37.22,1.71-2.77,1.59-4.88.29-7.74q-5.44-12-10.19-24.37c-1.2-3.11-2.74-4.76-6.12-5.55-16.85-3.94-33.58-8.37-50.44-12.27C7.93,299.88,2.59,296.27,0,289Zm361-32.46c.44-57.57-46.56-105-104.45-105.52-57.55-.47-105,46.56-105.51,104.44-.46,57.55,46.51,105,104.45,105.52C313,361.51,360.54,314.41,361,256.55Z"/></svg>