<svg id="Capa_1" fill = "#25bae9" data-name="Capa 1" xmlns="http://www.w3.org/2000/svg" viewBox="0 0 594.61 577"><title>mayBe</title><path d="M161.47,145.94a73.45,73.45,0,1,0,73.45,73.45A73.53,73.53,0,0,0,161.47,145.94Zm47.74,73.45a47.74,47.74,0,1,1-47.74-47.74A47.79,47.79,0,0,1,209.21,219.39Z"/><path d="M594.36,309.92c0-.44,0-1,0-1.57a55.35,55.35,0,0,0-1.33-10.77c-4.13-17.78-14-32.61-30.12-45.33a122.45,122.45,0,0,0-28.56-16.69c-.13-1.11-.29-2.18-.44-3.18-.09-.63-.19-1.25-.27-1.88a264.13,264.13,0,0,0-11.52-48.8,270.17,270.17,0,0,0-19.9-44.64,262.53,262.53,0,0,0-37-51A266.63,266.63,0,0,0,395,31.47a258.27,258.27,0,0,0-49.74-20.66C320.69,3.61,298.3.08,276.84,0l-9.42,0V0h-7.91c-5.23,0-11.41.1-17.54.71a272.48,272.48,0,0,0-47,8.85,267.55,267.55,0,0,0-75.5,34.81,270.54,270.54,0,0,0-90.4,101.4A261.21,261.21,0,0,0,5.88,210.72C2.3,227.49.53,241.46.32,254.65c0,.07,0,.19,0,.35a248.15,248.15,0,0,0,0,26.05c.23,5.9.65,11.73,1.25,17.33a255.92,255.92,0,0,0,10.25,48.88A269.51,269.51,0,0,0,96.42,473.74a268.64,268.64,0,0,0,163.38,62c2.66.1,5.39.15,8.11.15a271.36,271.36,0,0,0,36-2.52,268.21,268.21,0,0,0,84.35-26l3-1.54q-.17,1.08-.33,2.19c-1,6.59-2,13.4-1.79,20.62.39,15.29,5.76,26.69,16.41,34.84a58.23,58.23,0,0,0,24.79,11.37l.1,1.13h9.81l8.27,1-.08-1h27.9L473,574.19l.32-.05c20-3.3,36.18-19.46,39.3-39.3a97.25,97.25,0,0,0,.4-27.16c-2.45-19.45-13.14-32.95-30.91-39q-1.29-.45-2.61-.84c1.85-.11,3.68-.17,5.5-.17h5.94c1.61,0,2.94,0,4.19,0a15.85,15.85,0,0,0,15.79-18.5,25.74,25.74,0,0,1-.11-6,12.56,12.56,0,0,1,2.22-6.72,69.84,69.84,0,0,1,9.42-9.31l1.37-1.21c4.1-3.61,8.33-7,12.81-10.58,4.76-3.81,9.69-7.75,14.41-12,13.64-12.19,24-24.53,31.6-37.73A86.9,86.9,0,0,0,594.18,331a30.72,30.72,0,0,0,.1-4,15.18,15.18,0,0,1,0-1.69l.32-1.15V310.51Zm-86.93,88.5c-6.11,5.28-12.42,10.73-18.09,17.13a40.55,40.55,0,0,0-8.94,18.65l-6.78,2.41a3.62,3.62,0,0,0-.45.2l-5.37.47-1.84.17a5.26,5.26,0,0,1,1.36-.23h-.27l-1.05,0a12.73,12.73,0,0,0-4,.6c-4,.33-8,.59-11.9.59a63.51,63.51,0,0,1-12.84-1.18,34.5,34.5,0,0,1-10.74-4.27c-1.73-1-2.37-1.41-1.84-4.64.84-5.07,3.33-10,7.85-15.48,5.92-7.19,13.17-13,19.48-17.7q6.7-5,13.44-10l5.94-4.43.3-.23.28-.25,2.19-1.92c1.6-1.41,3.26-2.86,4.89-4.35,11.33-10.32,18.92-21.47,23.23-34.11.47-1.38.85-2.71,1.23-4,.1-.37.21-.74.33-1.12a9.74,9.74,0,0,0,.44-1.48l.07-.23.2-.3.16-2.46,0-.62,0-.57a24.27,24.27,0,0,0,0-6.81l-.1-1.25-.18-2.35-.28-.4-.12-.78-.2-1.33.09-1.52-1.46-2,0-.09a21,21,0,0,0-.68-2.06c-4.74-11.9-13.43-20.89-25.84-26.69l-1.19-.57-.63-.31-.71-.34-.75-.21a108.18,108.18,0,0,0-16-3.53c-4.06-.51-8-.64-11.82-.77l-1.15,0-.46,0-.46,0a134.64,134.64,0,0,0-26.24,4.16c-4.1,1.1-8.38,2.41-13.47,4.12-.19,0-.38.07-.56.12l-.68.15-.64.25-4.38,1.72c-3.42,1.32-7,2.7-10.45,4.15l-2.39,1a69.4,69.4,0,0,0-9.8,4.57,3.55,3.55,0,0,1-.49-.26c-3.38-2.12-5.12-4.87-5.32-8.41-.6-10.91,7.15-24.81,19.66-28.12l1.81-.49a38.72,38.72,0,0,1,7-1.49l1.2-.09.91-.32.07,0a30.44,30.44,0,0,1,5.46-.76l1.51-.13c3.56-.33,7.1-.54,10.85-.76l3.48-.2c4.66-.29,9.35-.7,13.88-1.1,8.5-.74,16.53-1.44,24.6-1.44,1.67,0,3.3,0,4.86.09,2.53.1,5,.15,7.47.2a141.89,141.89,0,0,1,16.59,1l2.15.32h-.05a6.92,6.92,0,0,1-1.18-.1h.05a12.14,12.14,0,0,0,2.16.23c1.6.25,3.18.51,4.72.79a10.53,10.53,0,0,0,3.66.69A122.82,122.82,0,0,1,524,265.29a84.82,84.82,0,0,1,26.89,18.32,43.56,43.56,0,0,1,12.31,25.18c2.6,19.18-2.38,36.13-15.22,51.79-1,1.18-1.88,2.36-2.75,3.49s-1.9,2.46-2.83,3.57a116.63,116.63,0,0,1-13.31,13.14l-.26-.08-3.7,3.05c-1.55,1.27-3.11,2.51-4.77,3.82-2.8,2.22-5.69,4.51-8.5,7C510.4,395.85,508.91,397.14,507.43,398.42ZM261.22,31.18h13.85V31a234.94,234.94,0,0,1,53,7.63l.36.13.66.24.53.18.56.11a113.18,113.18,0,0,1,12.6,3.7l1.26.43a219.6,219.6,0,0,1,49.38,23.46c26.76,17.22,49.1,38,66.4,61.88s30.2,51.63,38.14,82.34c1.26,4.9,2.36,10,3.3,15.57-4.22-.46-9.46-.89-15.62-1.3-13.12-.88-27.22-1.42-31.55-1.42L453,224l-8.82.33-5.73.21a73.45,73.45,0,1,0-100.27,56.6c-.16,1.17-.29,2.35-.37,3.53-1.14,16.9,5.78,30.55,20,39.47A30.43,30.43,0,0,0,374.12,329a32.79,32.79,0,0,0,16.37-4.61,42.91,42.91,0,0,1,5.6-2.49c.78-.31,1.56-.61,2.33-.93,8.88-3.64,19.4-7.68,30.14-10.09a78.13,78.13,0,0,1,17.23-2c1,0,2,0,3,.06a48.31,48.31,0,0,1,12.72,2.21A18.26,18.26,0,0,1,473,320.93a10.73,10.73,0,0,1,.34,8.74c-2.68,7.69-7.53,14.69-14.82,21.41a191.71,191.71,0,0,1-15.74,12.61l-2.53,1.87c-5.88,4.35-12,8.84-17.73,13.8a115,115,0,0,0-14.68,15.16c-7.13,8.93-11.48,18.08-13.31,28a38.07,38.07,0,0,0,.2,15.28,32,32,0,0,0,13.12,19.57l.94.65a235.79,235.79,0,0,1-74.49,37,238.27,238.27,0,0,1-40.07,8,232.45,232.45,0,0,1-26,1.48c-4.1,0-8.24-.11-12.31-.34-49.44-2.73-94-19.2-132.33-49A233.74,233.74,0,0,1,38,324a223,223,0,0,1-5.89-35.94A236.87,236.87,0,0,1,57.42,159.32c3.3-6.43,7-12.89,11.08-19.21.15-.24.41-.58.68-.94l.57-.78.21-.28.18-.29A169.41,169.41,0,0,1,82,121.18a136.77,136.77,0,0,1,10.49-12.25l.28-.28.26-.3a180.48,180.48,0,0,1,15-15.21l.36-.33a89.49,89.49,0,0,1,8.4-7.18l.83-.6.67-.77a17.36,17.36,0,0,1,1.9-1.57l1.11-.85A212.63,212.63,0,0,1,145,65.45l.14-.08.13-.08A203.38,203.38,0,0,1,171.11,51.6a233.68,233.68,0,0,1,55-17A238.09,238.09,0,0,1,261.21,31ZM347,256.94a47.74,47.74,0,1,1,64.84-30.86c-7.34.67-14.08,1.36-20.9,2.63-15.28,2.84-27,8.63-35.72,17.69A63.7,63.7,0,0,0,347,256.94ZM499,257.7a8.66,8.66,0,0,1-1-.22ZM447.8,545.42a45.28,45.28,0,0,1-16-2.63,27,27,0,0,1-7-4c-2.56-2-3.81-4.46-4.18-8.33a58.87,58.87,0,0,1,.72-13.69c.23-1.59.47-3.18.71-4.78.64-4.18,1.29-8.49,1.61-12.95,1.77-.06,3.51-.15,5.2-.28,3.85-.29,7.68-.7,11.38-1.1,2.28-.25,4.65-.5,6.94-.72,3.57-.34,7.39-.65,11.07-.65A44.51,44.51,0,0,1,469,497.47a32.39,32.39,0,0,1,5.8,2.13,10.61,10.61,0,0,1,5.83,6.82c1.39,4.13,1.57,8.78,1.62,13.58-.11,1.45-.17,2.82-.22,4.16-.07,1.83-.14,3.55-.35,5.12a16.84,16.84,0,0,1-13.92,13.94c-1.76.24-3.49.52-5.16.78-2.11.34-4.09.66-6.05.88A75.14,75.14,0,0,1,447.8,545.42Z"/><path d="M190.72,363.94a10.13,10.13,0,0,0-3.89,15.51c.55.91,1.12,1.82,1.68,2.73.89,1.44,1.8,2.92,2.67,4.36,1.07,1.77,3.56,5.92,9,5.92a10.61,10.61,0,0,0,5.65-1.74l.34-.2a78.51,78.51,0,0,1,13.95-6.18c12.56-4.28,26.62-6.75,43-7.55,4.06-.2,8.17-.3,12.2-.3a238.66,238.66,0,0,1,51,5.48,185.57,185.57,0,0,1,28.46,8.5,12.25,12.25,0,0,0,4.72,1.06,9.59,9.59,0,0,0,8.05-4.33,14.56,14.56,0,0,0,1.41-2.78c1.29-3.13,2.43-5.92,3.48-8.53a9.89,9.89,0,0,0-6.2-13.94l-1.64-.62c-2.86-1.08-5.82-2.19-8.87-3.19a260.31,260.31,0,0,0-77.63-12.44H278a270.79,270.79,0,0,0-29.55,1.43,179.63,179.63,0,0,0-35.3,7.13A112.1,112.1,0,0,0,190.72,363.94Z"/><circle cx="161.47" cy="218.99" r="19.28"/><circle cx="365.86" cy="213.09" r="19.28"/></svg>