<svg id="Layer_1" fill = "#25bae9" data-name="Layer 1" xmlns="http://www.w3.org/2000/svg" viewBox="0 0 512 512"><title>happy</title><path d="M376.21,363.42a17.6,17.6,0,1,1-31,16.75c-.28-.52-29-52.38-89.24-52.38-24.76,0-47.14,8.6-66.53,25.55a113.55,113.55,0,0,0-22.72,26.83,17.6,17.6,0,1,1-31-16.75c1.57-2.89,39.24-70.83,120.21-70.83S374.64,360.53,376.21,363.42Z"/><path d="M388.46,475.11a20,20,0,1,0-20.72-34.22A215.64,215.64,0,0,1,256,472C136.9,472,40,375.1,40,256S136.9,40,256,40s216,96.9,216,216a215.11,215.11,0,0,1-36.62,119.88,20,20,0,1,0,33.24,22.23A255.86,255.86,0,0,0,75,75,256,256,0,0,0,388.46,475.11Z"/><circle cx="167.09" cy="202.08" r="43.77"/><circle cx="345.09" cy="202.08" r="43.77"/></svg>