<svg id="Layer_1" fill = "#25bae9" data-name="Layer 1" xmlns="http://www.w3.org/2000/svg" viewBox="0 0 512 512"><title>happy</title><path d="M255,396c-92,0-134.81-77.2-136.59-80.48a20,20,0,0,1,35.18-19c0,.08,8.66,15.5,25.81,30.49,22,19.26,47.47,29,75.6,29,68.43,0,101.09-58.92,101.41-59.52a20,20,0,1,1,35.18,19C389.81,318.8,347,396,255,396Zm133.46,79.11a20,20,0,1,0-20.72-34.22A215.64,215.64,0,0,1,256,472C136.9,472,40,375.1,40,256S136.9,40,256,40s216,96.9,216,216a215.11,215.11,0,0,1-36.62,119.88,20,20,0,1,0,33.24,22.23A255.86,255.86,0,0,0,75,75,256,256,0,0,0,388.46,475.11ZM395,208a50,50,0,0,0-100,0,20,20,0,0,0,40,0,10,10,0,0,1,20,0,20,20,0,0,0,40,0Zm-177,0a50,50,0,0,0-100,0,20,20,0,0,0,40,0,10,10,0,0,1,20,0,20,20,0,0,0,40,0Z"/></svg>